<svg width="416" height="378" xmlns="http://www.w3.org/2000/svg" xmlns:xlink="http://www.w3.org/1999/xlink" overflow="hidden"><g><rect x="0" y="0" width="416" height="377.697" fill="#FFFFFF"/><rect x="20" y="59.9519" width="376" height="220.823" stroke="#042433" stroke-width="2.0016" stroke-miterlimit="8" fill="#C1E5F5"/><path d="M50 210.116C50 206.096 53.2613 202.837 57.2844 202.837L187.716 202.837C191.739 202.837 195 206.096 195 210.116L195 251.514C195 255.534 191.739 258.792 187.716 258.792L57.2844 258.792C53.2613 258.792 50 255.534 50 251.514Z" stroke="#042433" stroke-width="2.0016" stroke-miterlimit="8" fill="#156082" fill-rule="evenodd"/><text fill="#FFFFFF" font-family="Courier New,Courier New_MSFontService,sans-serif" font-weight="700" font-size="19" transform="matrix(1 0 0 0.999199 99.6967 236)">PODY</text><rect x="19" y="307.753" width="376" height="58.9528" stroke="#042433" stroke-width="2.0016" stroke-miterlimit="8" fill="#C2F1C8"/><text font-family="Aptos,Aptos_MSFontService,sans-serif" font-weight="700" font-size="19" transform="matrix(1 0 0 0.999199 186.472 343)">User</text><path d="M1.5-3.24424e-06 1.50009 41.0415-1.49991 41.0415-1.5 3.24424e-06ZM4.50009 39.5415 0.000104987 48.5415-4.49991 39.5415Z" transform="matrix(1.0008 0 0 -1 123.5 307.834)"/><path d="M1.5-9.4535e-07 1.5001 159.084-1.4999 159.084-1.5 9.4535e-07ZM4.5001 157.584 0.000104987 166.584-4.4999 157.584Z" transform="matrix(1.0008 0 0 -1 290.5 307.971)"/><text fill="#78206E" font-family="Aptos,Aptos_MSFontService,sans-serif" font-weight="700" font-size="19" transform="matrix(1 0 0 0.999199 299.413 180)">Access</text><text fill="#78206E" font-family="Aptos,Aptos_MSFontService,sans-serif" font-weight="700" font-size="19" transform="matrix(1 0 0 0.999199 299.413 203)">(SSH)</text><text fill="#78206E" font-family="Aptos,Aptos_MSFontService,sans-serif" font-weight="700" font-size="19" transform="matrix(1 0 0 0.999199 132.323 180)">Manage</text><rect x="20" y="14.988" width="376" height="44.9639" stroke="#042433" stroke-width="2.0016" stroke-miterlimit="8" fill="#C1E5F5"/><text font-family="Aptos,Aptos_MSFontService,sans-serif" font-weight="700" font-size="19" transform="matrix(1 0 0 0.999199 141.91 44)">Compute Node</text><path d="M1.5-2.55257e-06 1.50009 54.1949-1.49991 54.1949-1.5 2.55257e-06ZM4.50009 52.6949 0.000104987 61.6949-4.49991 52.6949Z" transform="matrix(1.0008 0 0 -1 123.5 203.082)"/><rect x="60" y="72.9415" width="314" height="56.9543" stroke="#042433" stroke-width="2.0016" stroke-miterlimit="8" fill="#156082"/><text fill="#FFFFFF" font-family="Aptos,Aptos_MSFontService,sans-serif" font-weight="700" font-size="19" transform="matrix(1 0 0 0.999199 173.025 108)">Container</text><rect x="50" y="82.9335" width="314" height="55.9551" stroke="#042433" stroke-width="2.0016" stroke-miterlimit="8" fill="#156082"/><text fill="#FFFFFF" font-family="Aptos,Aptos_MSFontService,sans-serif" font-weight="700" font-size="19" transform="matrix(1 0 0 0.999199 163.267 117)">Container</text></g></svg>